<svg id="SvgjsSvg1056" width="288" height="288" xmlns="http://www.w3.org/2000/svg" version="1.1" xmlns:xlink="http://www.w3.org/1999/xlink" xmlns:svgjs="http://svgjs.com/svgjs"><defs id="SvgjsDefs1057"></defs><g id="SvgjsG1058"><svg xmlns="http://www.w3.org/2000/svg" viewBox="0 0 101.55 111.66" width="288" height="288"><g><g><path d="M26.52 23.88A2.65 2.65 0 0125 26.15a2.23 2.23 0 01-2.64-.34q-3.15-3-6.18-6.18a2.42 2.42 0 013.42-3.42q3.15 3 6.17 6.19A5 5 0 0126.52 23.88zM66.05 26.05A2.4 2.4 0 0165.16 25a2.47 2.47 0 01.5-2.74q3-3.08 6-6a2.42 2.42 0 013.42 3.42c-2 2.1-4.09 4.15-6.18 6.17a2 2 0 01-.57.36A2.5 2.5 0 0166.05 26.05zM48.09 10.81c0 1.38 0 2.76 0 4.13a2.43 2.43 0 11-4.85 0q0-4.12 0-8.26a2.43 2.43 0 114.85 0C48.1 8.06 48.09 9.44 48.09 10.81zM10.76 48.09h-4a2.43 2.43 0 110-4.85c2.73 0 5.45 0 8.18 0a2.43 2.43 0 110 4.85zM90.08 26.15a3.44 3.44 0 01-2.49 3.46c-2.68 1.13-5.29 2.4-7.94 3.61a2.85 2.85 0 11-2.36-5.16c2.67-1.23 5.37-2.39 8-3.69a3.4 3.4 0 014.16.4zM14.7 31.82A3.12 3.12 0 0114.22 35a2.62 2.62 0 01-3 .92q-4.82-1.7-9.58-3.56a2.84 2.84 0 012-5.3c3.21 1.12 6.4 2.32 9.58 3.57A6.45 6.45 0 0114.7 31.82zM57.79 14.88a2.85 2.85 0 01-1.47-.69A2.91 2.91 0 0155.51 11Q57.18 6.32 59 1.67a2.83 2.83 0 015.3 2C63.18 6.85 62 10 60.73 13.21a2.27 2.27 0 01-.43.66A2.87 2.87 0 0157.79 14.88zM31.27 7.43c.67 1.46 1.35 2.92 2 4.39a2.84 2.84 0 11-5.17 2.33c-1.35-2.92-2.7-5.85-4-8.78A2.84 2.84 0 1129.26 3C29.94 4.5 30.6 6 31.27 7.43zM9.74 65.24c-1.44.66-2.87 1.33-4.31 2a2.84 2.84 0 11-2.37-5.15q4.33-2 8.69-4a2.84 2.84 0 112.38 5.15C12.67 63.91 11.2 64.57 9.74 65.24z" fill="#60a5fa" class="svgShape color000000-2 selectable"></path><path fill="none" d="M45.65 63.33A17.75 17.75 0 0063.33 45.66a17.42 17.42 0 00-.86-5.38 8.46 8.46 0 00-3.13.4 8.28 8.28 0 00-5.62 5.91c-.48 1.72-1.5 2.55-3 2.42a3 3 0 01-2-1.27 6 6 0 00-5.94-2.19 6.06 6.06 0 00-5 5.29c-.35 2.09-1.37 2.86-3.5 2.73a6.41 6.41 0 00-1.85.16 6.2 6.2 0 00-1.91.85A17.76 17.76 0 0045.65 63.33zM33 47.67c2.91-6.91 10-9.51 16.63-6.07l.12 0a33.56 33.56 0 013.87-3.86 23.89 23.89 0 014.8-2.39 12.72 12.72 0 011.38-.3A17.61 17.61 0 0028.44 49.5a12.63 12.63 0 013.71-1.21A1.24 1.24 0 0033 47.67z" class="selectable"></path><path fill="none" d="M45.64,68.18a22.42,22.42,0,0,1-18-9,5.27,5.27,0,0,0,0,1.19,6.07,6.07,0,0,0,6.38,5.52c2.25-.12,3.42.87,3.67,2.87a5.77,5.77,0,0,0,4.41,5.12,5.89,5.89,0,0,0,6.53-2,2.85,2.85,0,0,1,2.84-1.26,2.89,2.89,0,0,1,2.23,2.37,8.48,8.48,0,0,0,16.37,0,3,3,0,0,1,2.21-2.4,2.88,2.88,0,0,1,2.91,1.28A6.19,6.19,0,0,0,86.14,68.8c.35-2.22,1.18-2.94,3.58-2.88h.57a6.2,6.2,0,1,0-.6-12.38c-2.24.16-3.22-.61-3.56-2.83a6,6,0,0,0-2.9-4.36,6.1,6.1,0,0,0-7.94,1.29A3.22,3.22,0,0,1,73.2,49c-1.53.16-2.57-.67-3.07-2.45A8.62,8.62,0,0,0,68,42.83a22.21,22.21,0,0,1,.18,2.84A22.5,22.5,0,0,1,45.64,68.18Z" class="selectable"></path><path d="M28.44,49.5A17.62,17.62,0,0,1,59.76,35.1a12.92,12.92,0,0,1,4.73,0c.42.09.84.2,1.24.32A22.52,22.52,0,0,0,23.14,45.62a22.89,22.89,0,0,0,1.28,7.53A10.79,10.79,0,0,1,28.44,49.5Z" fill="#60a5fa" class="svgShape color000000-5 selectable"></path><path d="M34.22,53.57c2.13.13,3.15-.64,3.5-2.73a6.06,6.06,0,0,1,5-5.29,6,6,0,0,1,5.94,2.19,3,3,0,0,0,2,1.27c1.51.13,2.53-.7,3-2.42a8.28,8.28,0,0,1,5.62-5.91,8.46,8.46,0,0,1,3.13-.4,17.55,17.55,0,0,0-2.71-5.18,12.72,12.72,0,0,0-1.38.3,23.89,23.89,0,0,0-4.8,2.39,33.56,33.56,0,0,0-3.87,3.86l-.12,0C43,38.16,35.87,40.76,33,47.67a1.24,1.24,0,0,1-.81.62,12.63,12.63,0,0,0-3.71,1.21,17.7,17.7,0,0,0,2,5.08,6.2,6.2,0,0,1,1.91-.85A6.41,6.41,0,0,1,34.22,53.57Z" fill="#60a5fa" class="svgShape color000000-6 selectable"></path><path d="M101.15,56.75c-.59-2.8-3.43-5.65-3.43-5.65a11.91,11.91,0,0,0-6.21-2.84c-.23,0-.51-.36-.62-.61-2.16-5.21-6.61-8-12.2-7.46a30.07,30.07,0,0,0-4.89,1.36,13.82,13.82,0,0,0-8.07-6.11A22.32,22.32,0,0,1,68,42.83a8.62,8.62,0,0,1,2.13,3.72c.5,1.78,1.54,2.61,3.07,2.45a3.22,3.22,0,0,0,2.09-1.36,6.1,6.1,0,0,1,7.94-1.29,6,6,0,0,1,2.9,4.36c.34,2.22,1.32,3,3.56,2.83a6.2,6.2,0,1,1,.6,12.38h-.57c-2.4-.06-3.23.66-3.58,2.88a6.19,6.19,0,0,1-10.91,3.06,2.88,2.88,0,0,0-2.91-1.28A3,3,0,0,0,70.11,73a8.48,8.48,0,0,1-16.37,0,2.89,2.89,0,0,0-2.23-2.37,2.85,2.85,0,0,0-2.84,1.26,5.89,5.89,0,0,1-6.53,2,5.77,5.77,0,0,1-4.41-5.12c-.25-2-1.42-3-3.67-2.87a6.07,6.07,0,0,1-6.38-5.52,5.27,5.27,0,0,1,0-1.19,22.58,22.58,0,0,1-3.23-6c-.16.24-.33.48-.48.75a28.75,28.75,0,0,0-1.63,4.36v3a1.52,1.52,0,0,1,.16.4,11.47,11.47,0,0,0,9.47,9.45,1.32,1.32,0,0,1,1.13,1,11.37,11.37,0,0,0,9.47,7.32,11.54,11.54,0,0,0,7.39-1.6,14.07,14.07,0,0,0,24,0l.31.16a11.52,11.52,0,0,0,16.63-6.14.92.92,0,0,1,.87-.66A11.52,11.52,0,0,0,101.15,56.75Z" fill="#60a5fa" class="svgShape color000000-7 selectable"></path><path d="M59.76 35.1a17.55 17.55 0 012.71 5.18A8.46 8.46 0 0168 42.83a22.32 22.32 0 00-2.27-7.39c-.4-.12-.82-.23-1.24-.32A12.92 12.92 0 0059.76 35.1zM30.46 54.58a17.7 17.7 0 01-2-5.08 10.79 10.79 0 00-4 3.65 22.58 22.58 0 003.23 6A6.26 6.26 0 0130.46 54.58zM70.59 63.19a8 8 0 01-7.79 8 7.9 7.9 0 01-8.15-7.64A11 11 0 0155.73 59a61.21 61.21 0 014.1-7.33c1.58-2.45 3.84-2.44 5.52-.06a31.18 31.18 0 015 10 5.67 5.67 0 01.15.69C70.57 62.62 70.58 63 70.59 63.19zm-7.8-5.95h-.38c-.76 1.69-1.58 3.35-2.26 5.07a2.49 2.49 0 00.88 3 2.6 2.6 0 003.06.05 2.47 2.47 0 001-3.05C64.36 60.6 63.55 58.93 62.79 57.24zM84.75 62.11a4.81 4.81 0 01-4.66 4.8 4.72 4.72 0 01-4.88-4.57 6.45 6.45 0 01.65-2.75 37 37 0 012.45-4.39c1-1.47 2.3-1.46 3.31 0a18.66 18.66 0 013 6 2.7 2.7 0 01.08.41C84.74 61.77 84.74 62 84.75 62.11zm-4.67-3.56h-.22c-.46 1-1 2-1.36 3A1.47 1.47 0 0079 63.38a1.53 1.53 0 001.83 0 1.46 1.46 0 00.57-1.82C81 60.56 80.54 59.56 80.08 58.55zM49.35 62.11a4.82 4.82 0 01-4.66 4.8 4.72 4.72 0 01-4.88-4.57 6.59 6.59 0 01.64-2.75 37 37 0 012.46-4.39c.94-1.47 2.3-1.46 3.3 0a18.66 18.66 0 013 6 2.71 2.71 0 01.09.41C49.33 61.77 49.34 62 49.35 62.11zm-4.67-3.56h-.23c-.45 1-.94 2-1.35 3a1.48 1.48 0 00.52 1.79 1.55 1.55 0 001.84 0A1.48 1.48 0 0046 61.59C45.62 60.56 45.13 59.56 44.68 58.55z" fill="#60a5fa" class="svgShape color000000-8 selectable"></path><path stroke="#60a5fa" stroke-miterlimit="10" stroke-width=".5" d="M71.38,110.76c2.34-2.51,9.59-10.33,9.59-10.33h0c1.67-1.79,3.27-3.53,4.89-5.26a1.59,1.59,0,0,0,.48-1.93,1.65,1.65,0,0,0-1.82-.84l-1.69.13c.16-.34.27-.58.4-.82,1-2,2.12-4.06,3.17-6.09.71-1.38.08-2.44-1.45-2.44-3.65,0-7.31,0-11,0a1.73,1.73,0,0,0-1.75,1.08l-6.1,12.57a1.5,1.5,0,0,0,1.46,2.35c1.45,0,2.9,0,4.42,0-.24.75-.44,1.44-.7,2.11L70,105.38c-.48,1.5-1,2.86-1.34,4.27a1.76,1.76,0,0,0,.41,1.43,2.13,2.13,0,0,0,1.48.32C70.82,111.38,71.13,111,71.38,110.76ZM69.82,96.22a5.64,5.64,0,0,1,.21-.56c1.45-3,2.9-6,4.37-9a1,1,0,0,1,.66-.53c2.51,0,5,0,7.7,0L80,91.35c-.33.64-.67,1.26-1,1.9a1.5,1.5,0,0,0,1.48,2.37h.83l-7.46,8-.14-.09c.11-.39.22-.78.35-1.17.44-1.36.9-2.71,1.33-4.07a1.49,1.49,0,0,0-1.55-2.11C72.56,96.21,71.23,96.22,69.82,96.22Z" class="svgStroke colorStroke231f20-9 selectable"></path></g></g></svg></g></svg>