<svg id="SvgjsSvg1171" width="288" height="288" xmlns="http://www.w3.org/2000/svg" version="1.1" xmlns:xlink="http://www.w3.org/1999/xlink" xmlns:svgjs="http://svgjs.com/svgjs"><defs id="SvgjsDefs1172"></defs><g id="SvgjsG1173"><svg xmlns="http://www.w3.org/2000/svg" viewBox="0 0 81.16 68.97" width="288" height="288"><g><g><path stroke="#60a5fa" stroke-miterlimit="10" stroke-width=".5" d="M62.17 40.23l.91.25-.28 1.08 1.08.3-.25.92c-.34-.09-.67-.16-1-.27a.78.78 0 00-.71.09c-.49.31-1 .59-1.49.87a.17.17 0 00-.1.2q0 .3 0 .6a.17.17 0 00.08.19l1.75 1a.33.33 0 00.22 0l1.1-.29.13 0 .25.92-1.08.29.28 1.09-.92.25c-.08-.32-.19-.62-.25-.94a.8.8 0 00-.5-.65c-.53-.28-1-.59-1.53-.88l-.77.45c0 .58 0 1.19 0 1.8a.79.79 0 00.29.69c.25.21.47.46.7.69l-.68.68-.76-.78-.78.78-.68-.7.36-.35.53-.53a.26.26 0 00.07-.16c0-.71 0-1.43 0-2.12l-.78-.45-.23.14-1.53.88a.36.36 0 00-.2.26c-.09.39-.21.78-.32 1.18l-.92-.24.29-1.09-1.08-.29.24-.92.38.1.87.23a.37.37 0 00.21 0l1.74-1a.17.17 0 00.09-.18q0-.31 0-.63c0-.08 0-.13-.09-.17l-1.73-1a.39.39 0 00-.24 0c-.36.08-.71.19-1.07.28l-.16 0-.24-.91 1.08-.29-.29-1.09.92-.25c.1.36.21.71.29 1.06a.57.57 0 00.34.45c.53.29 1.05.6 1.57.91a.17.17 0 00.21 0 4.94 4.94 0 01.55-.32.13.13 0 00.1-.14c0-.68 0-1.36 0-2a.33.33 0 00-.08-.19l-.89-.89.68-.67.75.79.78-.82.7.7-.86.85a.34.34 0 00-.12.29v2c.25.16.47.31.7.44a.13.13 0 00.12 0c.6-.34 1.2-.68 1.79-1a.34.34 0 00.11-.17l.3-1.1A.46.46 0 0162.17 40.23zm-3.55 4.53a.79.79 0 100-1.58.79.79 0 00-.8.79A.8.8 0 0058.62 44.76zM26.83 40.23l.92.25-.29 1.08 1.08.3-.24.92c-.34-.09-.67-.16-1-.27a.78.78 0 00-.71.09c-.48.31-1 .59-1.49.87a.18.18 0 00-.1.2 4 4 0 010 .6c0 .08 0 .14.09.19l1.74 1a.33.33 0 00.22 0l1.1-.29.14 0 .24.92-1.08.29.29 1.09-.92.25a8.16 8.16 0 01-.25-.94.84.84 0 00-.5-.65c-.53-.28-1-.59-1.53-.88l-.78.45c0 .58 0 1.19 0 1.8a.79.79 0 00.29.69c.25.21.47.46.7.69l-.68.68-.76-.78-.77.78-.69-.7.36-.35.53-.53a.27.27 0 00.08-.16V45.69l-.77-.45-.24.14-1.52.88a.36.36 0 00-.2.26c-.1.39-.21.78-.32 1.18l-.92-.24.28-1.09-1.08-.29.24-.92.39.1.87.23a.34.34 0 00.2 0l1.75-1a.16.16 0 00.08-.18q0-.31 0-.63a.14.14 0 00-.09-.17l-1.73-1a.36.36 0 00-.23 0c-.36.08-.72.19-1.07.28l-.17 0-.24-.91 1.08-.29-.28-1.09.92-.25c.1.36.2.71.28 1.06a.61.61 0 00.34.45c.53.29 1.05.6 1.58.91.08.05.12 0 .2 0a6.05 6.05 0 01.55-.32.13.13 0 00.1-.14v-2a.28.28 0 00-.09-.19l-.88-.89.67-.67.75.79.79-.82.69.7c-.28.28-.56.57-.86.85a.36.36 0 00-.12.29v2l.7.44a.15.15 0 00.13 0l1.78-1a.28.28 0 00.11-.17c.11-.37.2-.74.3-1.1zm-3.54 4.53a.79.79 0 000-1.58.79.79 0 100 1.58z" class="svgStroke colorStroke231f20-2 selectable"></path><path d="M49.81,46.07a8,8,0,0,1-7.79,8,7.89,7.89,0,0,1-8.15-7.64A10.84,10.84,0,0,1,35,41.86a61.21,61.21,0,0,1,4.1-7.33c1.58-2.45,3.84-2.44,5.52-.06a31.23,31.23,0,0,1,5,10,5.44,5.44,0,0,1,.15.7C49.79,45.51,49.8,45.87,49.81,46.07Zm-7.8-6h-.38c-.76,1.69-1.58,3.35-2.26,5.07a2.48,2.48,0,0,0,.88,3,2.57,2.57,0,0,0,3.06,0,2.45,2.45,0,0,0,.95-3C43.58,43.49,42.77,41.82,42,40.12Z" fill="#60a5fa" class="svgShape color000000-3 selectable"></path><path fill="none" d="M19.63 31.16a6.33 6.33 0 00-2.3 4.09C17 37.34 16 38.11 13.83 38a6 6 0 00-1.84.15A6.37 6.37 0 007.26 43.6a5.82 5.82 0 000 1.18 6.05 6.05 0 006.38 5.52h0a21.94 21.94 0 006.1-13A27.35 27.35 0 0019.63 31.16zM20.57 50.4A19.93 19.93 0 0028.4 49C38 45.31 43.56 35.13 42.17 25c0-.09 0-.17 0-.25h-.05A8.58 8.58 0 0033.33 31c-.48 1.72-1.5 2.54-3 2.41a3 3 0 01-2-1.27A6.13 6.13 0 0024.88 30C26.2 37.16 24.62 44 20.57 50.4z" class="selectable"></path><path fill="none" d="M18.21 55.73a5.82 5.82 0 003.54 2.56 5.87 5.87 0 006.53-2A2.82 2.82 0 0131.12 55a2.87 2.87 0 012.23 2.36 8.49 8.49 0 0016.38 0 2.9 2.9 0 012.2-2.4 2.86 2.86 0 012.91 1.28 6.2 6.2 0 0010.91-3.06c.35-2.23 1.19-2.94 3.58-2.89.1 0 .34 0 .58 0A6.19 6.19 0 1069.3 38c-2.24.16-3.22-.62-3.56-2.84a6 6 0 00-2.89-4.35 6.11 6.11 0 00-8 1.28 3.25 3.25 0 01-2.09 1.37c-1.52.16-2.57-.68-3.06-2.45a8.78 8.78 0 00-1.23-2.6c-.33 6.58-3.05 13.91-7.28 18.07C34.86 53.33 27.17 56.39 18.21 55.73zM29.32 26.07a32.88 32.88 0 013.87-3.87A24.43 24.43 0 0138 19.81a12.72 12.72 0 011.38-.3c.39-.06.86-.12 1.36-.16-2.43-6.18-8-12.13-19.93-13.53A16.35 16.35 0 0015 6.16 20.83 20.83 0 008.26 9.05c7.22 3.28 12.31 8.38 15.05 15.46A12.84 12.84 0 0129.2 26z" class="selectable"></path><path d="M23.31,24.51c-2.74-7.08-7.83-12.18-15-15.46A20.83,20.83,0,0,1,15,6.16a16.35,16.35,0,0,1,5.79-.34c11.92,1.4,17.5,7.35,19.93,13.53a11.5,11.5,0,0,1,3.37.19c.43.09.84.2,1.25.32a14.32,14.32,0,0,1,2.32.9,28.73,28.73,0,0,0-12.74-17,28.74,28.74,0,0,0-33.63,4l-.14.13c-.06,0-.17.17-.29.3A3.07,3.07,0,0,0,0,10a2.61,2.61,0,0,0,.22,1.29c.46,1,1.36,1.41,2.61,1.69a19.66,19.66,0,0,1,6.5,2.76,22.79,22.79,0,0,1,8.79,10.1A11,11,0,0,1,23.31,24.51Z" fill="#60a5fa" class="svgShape color000000-6 selectable"></path><path d="M80.76,41.17c-.58-2.81-3.43-5.66-3.43-5.66a11.82,11.82,0,0,0-6.2-2.83c-.24,0-.52-.36-.63-.62-2.16-5.21-6.61-8-12.2-7.45A29.1,29.1,0,0,0,53.41,26a13.61,13.61,0,0,0-5.74-5.21,23.28,23.28,0,0,1,.74,3.68,25.45,25.45,0,0,1,.11,3.93A8.78,8.78,0,0,1,49.75,31c.49,1.77,1.54,2.61,3.06,2.45a3.25,3.25,0,0,0,2.09-1.37,6.11,6.11,0,0,1,8-1.28,6,6,0,0,1,2.89,4.35c.34,2.22,1.32,3,3.56,2.84a6.19,6.19,0,1,1,.61,12.37c-.24,0-.48,0-.58,0-2.39,0-3.23.66-3.58,2.89a6.2,6.2,0,0,1-10.91,3.06A2.86,2.86,0,0,0,51.93,55a2.9,2.9,0,0,0-2.2,2.4,8.49,8.49,0,0,1-16.38,0A2.87,2.87,0,0,0,31.12,55a2.82,2.82,0,0,0-2.84,1.25,5.87,5.87,0,0,1-6.53,2,5.82,5.82,0,0,1-3.54-2.56c-1-.08-2.06-.19-3.12-.36a2.76,2.76,0,0,1-2.45-1.89,2.83,2.83,0,0,1,.87-3l.18-.2h0a6.05,6.05,0,0,1-6.38-5.52,5.82,5.82,0,0,1,0-1.18A6.37,6.37,0,0,1,12,38.14,6,6,0,0,1,13.83,38c2.13.12,3.15-.65,3.5-2.74a6.33,6.33,0,0,1,2.3-4.09,21.54,21.54,0,0,0-1.5-5.37,12.44,12.44,0,0,0-5.56,6.3,1.24,1.24,0,0,1-.81.61,12.93,12.93,0,0,0-3.71,1.21,10.77,10.77,0,0,0-4,3.65c-.17.25-.33.49-.48.75a29.19,29.19,0,0,0-1.64,4.36v3a2.37,2.37,0,0,1,.17.41,11.46,11.46,0,0,0,9.46,9.44,1.32,1.32,0,0,1,1.13,1,11.4,11.4,0,0,0,9.47,7.32,11.61,11.61,0,0,0,7.39-1.61,14.07,14.07,0,0,0,24,0l.31.16A11.52,11.52,0,0,0,70.5,56.24a.93.93,0,0,1,.87-.66A11.51,11.51,0,0,0,80.76,41.17Z" fill="#60a5fa" class="svgShape color000000-7 selectable"></path><path d="M28.28,32.15a3,3,0,0,0,2,1.27c1.5.13,2.52-.69,3-2.41a8.58,8.58,0,0,1,8.75-6.32h.05a23.92,23.92,0,0,0-1.4-5.35c-.5,0-1,.1-1.36.16a12.72,12.72,0,0,0-1.38.3,24.43,24.43,0,0,0-4.8,2.39,32.88,32.88,0,0,0-3.87,3.87L29.2,26a12.84,12.84,0,0,0-5.89-1.5c.3.77.58,1.55.82,2.37A29.86,29.86,0,0,1,24.88,30,6.13,6.13,0,0,1,28.28,32.15Z" fill="#60a5fa" class="svgShape color000000-8 selectable"></path><path d="M22.34 30a6.19 6.19 0 012.54 0 29.86 29.86 0 00-.75-3.11c-.24-.82-.52-1.6-.82-2.37a11 11 0 00-5.18 1.28 21.54 21.54 0 011.5 5.37A6.08 6.08 0 0122.34 30zM13.69 50.3l-.18.2a2.83 2.83 0 00-.87 3 2.76 2.76 0 002.45 1.89c1.06.17 2.09.28 3.12.36a6.26 6.26 0 01-.86-2.56C17.09 51.18 15.93 50.19 13.69 50.3zM44.1 19.54a11.5 11.5 0 00-3.37-.19 23.92 23.92 0 011.4 5.35 8.44 8.44 0 015.48 2.54 9 9 0 01.91 1.13 25.45 25.45 0 00-.11-3.93 23.28 23.28 0 00-.74-3.68 14.32 14.32 0 00-2.32-.9C44.94 19.74 44.53 19.63 44.1 19.54z" fill="#60a5fa" class="svgShape color000000-9 selectable"></path></g></g></svg></g></svg>