<svg id="SvgjsSvg1036" width="288" height="288" xmlns="http://www.w3.org/2000/svg" version="1.1" xmlns:xlink="http://www.w3.org/1999/xlink" xmlns:svgjs="http://svgjs.com/svgjs"><defs id="SvgjsDefs1037"></defs><g id="SvgjsG1038"><svg xmlns="http://www.w3.org/2000/svg" viewBox="0 0 95.81 63.64" width="288" height="288"><g><g><path d="M71.28 18.5a3 3 0 01-.87-4.61l.15-.18q4.41-4.53 8.93-9a2.92 2.92 0 014.33-.11A2.89 2.89 0 0183.64 9c-2.92 3-5.88 5.91-8.83 8.85a2.89 2.89 0 01-3.49.69zM55.54 14.75a3 3 0 01-.87-4.61l.15-.17q4.41-4.53 8.93-9a2.91 2.91 0 014.32-.1 2.9 2.9 0 01-.17 4.32c-2.93 3-5.89 5.9-8.84 8.84a2.87 2.87 0 01-3.49.7zM78.83 35.82a1.46 1.46 0 00-2.46-.67l-2.58 2.57a6.57 6.57 0 01.12.89A6.21 6.21 0 0168 45h-.57c-2.4 0-3.23.66-3.58 2.89A6.2 6.2 0 0152.92 51a2.77 2.77 0 00-5.12 1.12 8.48 8.48 0 01-16.37 0 2.88 2.88 0 00-2.24-2.37 2.83 2.83 0 00-2.83 1.25A5.86 5.86 0 0119.83 53a5.87 5.87 0 01-3.55-2.56 6.57 6.57 0 01-.86-2.56c-.25-2-1.42-3-3.65-2.87h0a6 6 0 01-6.38-5.52 5.18 5.18 0 010-1.18 6.25 6.25 0 012.81-4.61 6.45 6.45 0 011.91-.85 6.35 6.35 0 011.85-.15c2.13.12 3.15-.65 3.49-2.74a6.38 6.38 0 012.31-4.09 6.31 6.31 0 012.71-1.19 6 6 0 015.93 2.18 3 3 0 002 1.27c1.5.13 2.53-.69 3-2.41A8.26 8.26 0 0137 19.77a8.07 8.07 0 013.13-.4h.05a8.4 8.4 0 013.15.86c.91-.92 1.82-1.83 2.74-2.74a1.29 1.29 0 00-.35-2.06h0a14.43 14.43 0 00-2.33-.9c-.41-.12-.82-.23-1.25-.32A11.5 11.5 0 0038.8 14c-.5 0-1 .1-1.35.16a13.35 13.35 0 00-1.39.3 24.11 24.11 0 00-4.79 2.4 32.83 32.83 0 00-3.88 3.86l-.11 0a12.75 12.75 0 00-5.89-1.5 10.85 10.85 0 00-5.18 1.27 12.41 12.41 0 00-5.54 6.25 1.26 1.26 0 01-.85.67 12.51 12.51 0 00-3.69 1.21 10.69 10.69 0 00-4 3.64c-.16.25-.33.49-.48.75A29.16 29.16 0 000 37.34v3a1.74 1.74 0 01.16.41 11.45 11.45 0 009.47 9.44 1.34 1.34 0 011.13 1 11.38 11.38 0 009.47 7.32 11.54 11.54 0 007.39-1.61 14.06 14.06 0 0024 0h0a11.52 11.52 0 0016.91-6 1 1 0 01.88-.67 11.52 11.52 0 009.39-14.41zM82.39 27.43a3 3 0 01-.87-4.61l.15-.17q4.41-4.53 8.93-9a3 3 0 114.15 4.22c-2.92 3-5.89 5.9-8.84 8.84a2.87 2.87 0 01-3.49.7z" fill="#60a5fa" class="svgShape color000000-2 selectable"></path></g></g></svg></g></svg>