<svg id="SvgjsSvg1249" width="288" height="288" xmlns="http://www.w3.org/2000/svg" version="1.1" xmlns:xlink="http://www.w3.org/1999/xlink" xmlns:svgjs="http://svgjs.com/svgjs"><defs id="SvgjsDefs1250"></defs><g id="SvgjsG1251"><svg xmlns="http://www.w3.org/2000/svg" viewBox="0 0 76.24 48.01" width="288" height="288"><g><g><path fill="none" stroke="#60a5fa" stroke-miterlimit="10" stroke-width="4" d="M2.49 34.1l3.15-4a5.14 5.14 0 018.66.94l.87 1.79a5.14 5.14 0 008.92.58L26 30.49a5.15 5.15 0 018.85.43L35.42 32a5.14 5.14 0 009.17-.15l0-.09a5.15 5.15 0 019.15-.2h0a5.14 5.14 0 009.07-.05l.12-.23a5.14 5.14 0 019.17.14l1.4 2.87M2.49 44.38l3.15-4a5.14 5.14 0 018.66.93l.87 1.8a5.14 5.14 0 008.92.58L26 40.77a5.15 5.15 0 018.85.43l.56 1.06a5.14 5.14 0 009.17-.14l0-.1a5.15 5.15 0 019.15-.19h0a5.14 5.14 0 009.07 0l.12-.24a5.14 5.14 0 019.17.15l1.4 2.86" class="svgStroke colorStroke231f20-2 selectable"></path><path fill="none" stroke="#60a5fa" stroke-miterlimit="10" stroke-width="5" d="M73.74,24.78a11,11,0,0,0-.35-2.63,9.69,9.69,0,0,0-1.72-3.46,10.33,10.33,0,0,0-3.24-2.93,10.58,10.58,0,0,0-3.7-1.24,1,1,0,0,1-.56-.55c-2-4.68-6-7.21-11-6.7a16,16,0,0,0-3.35.89,1.39,1.39,0,0,1-1.58-.49A12.29,12.29,0,0,0,43.64,3.8,12.73,12.73,0,0,0,41.55,3c-.37-.11-.74-.21-1.12-.29a10.55,10.55,0,0,0-3-.17,12,12,0,0,0-1.22.15A11,11,0,0,0,34.94,3a22.08,22.08,0,0,0-4.32,2.16,30,30,0,0,0-3.48,3.47L27,8.53a11.58,11.58,0,0,0-5.3-1.35,9.79,9.79,0,0,0-4.65,1.15,11.08,11.08,0,0,0-5,5.62,1.12,1.12,0,0,1-.76.6A11.42,11.42,0,0,0,8,15.63a9.84,9.84,0,0,0-3.61,3.28c-.14.22-.29.44-.43.68a12.13,12.13,0,0,0-1.33,3.53,8.39,8.39,0,0,0-.15,1.61" class="svgStroke colorStroke231f20-3 selectable"></path></g></g></svg></g></svg>